# xmcd
#
# Track frame offsets:
#	150
#	13787
#	27908
#	43720
#	58986
#	73884
#	91678
#	106683
#	123245
#	141235
#	170182
#	182250
#	200581
#	220823
#	238953
#	255979
#	269565
#	280665
#	308238
#	322722
#	345233
#
# Disc length: 4804 seconds
#
# Revision: 0
# Processed by: cddbd v1.5.2PL0 Copyright (c) Steve Scherf et al.
# Submitted via: EasyCDDAExtractor 8.2.3.1
#
DISCID=2f12c215
DTITLE=Various Artist - Zydeco Kings   CD-3  
DYEAR=2005
DGENRE=Blues
TTITLE0=C.J.CHENIER - Man Smart, Woman Smarter
TTITLE1=GENO DeLAFOSE - Canaille (You're Cute,But You're Sneaky)
TTITLE2=CHUBBY CARRIER - Squeeze Box
TTITLE3=L.C.DONATTO - Virgie Mae
TTITLE4=C.J.CHENIER - Too Much Fun
TTITLE5=PORCHDOGS CAJUN ZYDECO BAND - Stomp Down Music
TTITLE6=CLIFTON CHENIER - Highway Blus
TTITLE7=ZYDECOLOGY - Louisiana Waltz
TTITLE8=L.C.DONATTO - It's To Late
TTITLE9=C.J.CHENIER - The Moon is Rising
TTITLE10=CLIFTON CHENIER - Ay Te Te Fee
TTITLE11=ZYDECO BON! - Chicken Scratch
TTITLE12=CHUBBY CARRIER - Zydeco Sont Pas Sale
TTITLE13=C.J.CHENIER - Every Day I Have To Cry Some
TTITLE14=ZYDECOLOGY - Thank God For the Devil
TTITLE15=PORCHDOGS CAJUN ZYDECO BAND - Evangeline Special
TTITLE16=CHUBBY CARRIER - They Want To Party Now
TTITLE17=GENO DeLAFOSE - Belizaire Waltz
TTITLE18=C.J.CHENIER - Louisiana Two Step
TTITLE19=BILL SIMS -  Want to See You Again
TTITLE20=CLIFTON CHENIER - Be My Chauffeur
EXTD=
EXTT0=
EXTT1=
EXTT2=
EXTT3=
EXTT4=
EXTT5=
EXTT6=
EXTT7=
EXTT8=
EXTT9=
EXTT10=
EXTT11=
EXTT12=
EXTT13=
EXTT14=
EXTT15=
EXTT16=
EXTT17=
EXTT18=
EXTT19=
EXTT20=
PLAYORDER=
